<?xml version="1.0" encoding="UTF-8" ?>
<!DOCTYPE svg PUBLIC "-//W3C//DTD SVG 1.1//EN" "http://www.w3.org/Graphics/SVG/1.1/DTD/svg11.dtd">
<svg width="633pt" height="32pt" viewBox="0 0 633 32" version="1.1" xmlns="http://www.w3.org/2000/svg">
<path fill="#ffffff" d=" M 0.00 0.00 L 633.00 0.00 L 633.00 32.00 L 0.00 32.00 L 0.00 0.00 Z" />
<path fill="#fad770" d=" M 1.00 0.93 C 21.31 0.55 41.64 0.58 61.95 0.90 C 77.63 0.15 93.33 1.31 109.00 0.52 C 113.00 0.39 116.97 1.06 120.96 0.87 C 137.96 0.01 154.99 1.13 171.99 0.65 C 207.33 0.93 242.67 0.56 278.02 0.83 C 297.34 0.47 316.67 1.00 335.99 0.62 C 342.99 0.73 349.99 1.23 356.98 0.69 C 415.65 0.85 474.30 0.68 532.96 0.69 C 545.65 0.89 558.35 0.24 571.03 0.97 C 590.01 0.33 609.00 1.09 627.98 0.74 C 628.80 0.92 630.45 1.27 631.27 1.45 C 629.87 1.92 628.47 2.48 626.98 2.47 C 418.33 2.38 209.66 2.52 1.00 2.40 L 1.00 0.93 Z" />
<path fill="#fff2cc" d=" M 631.27 1.45 L 631.71 1.33 C 632.22 2.82 632.03 4.43 632.06 5.98 C 631.74 13.70 632.35 21.42 631.88 29.14 C 471.25 29.27 310.62 29.15 149.99 29.20 C 100.35 29.12 50.71 29.34 1.07 29.10 C 0.74 20.20 1.04 11.30 1.00 2.40 C 209.66 2.52 418.33 2.38 626.98 2.47 C 628.47 2.48 629.87 1.92 631.27 1.45 Z" />
<path fill="#6b4825" d=" M 212.00 8.12 C 215.43 9.51 219.59 9.48 223.03 8.12 C 222.94 9.46 222.88 10.79 222.83 12.13 C 221.74 10.88 220.45 9.84 218.73 9.68 C 218.64 13.02 218.66 16.37 218.70 19.72 C 219.34 19.98 220.64 20.50 221.29 20.76 C 218.71 21.03 216.11 21.07 213.52 20.95 C 214.16 20.62 215.43 19.96 216.06 19.63 C 216.10 16.42 216.10 13.20 216.09 9.99 C 215.38 10.01 213.96 10.04 213.25 10.06 C 212.49 10.83 211.72 11.60 210.95 12.35 C 211.28 10.94 211.65 9.53 212.00 8.12 Z" />
<path fill="#6b4825" d=" M 391.04 8.14 C 394.48 9.51 398.58 9.42 402.04 8.15 C 402.01 9.49 402.00 10.83 402.00 12.18 C 400.95 10.82 399.57 9.88 397.83 9.70 C 397.82 12.99 397.58 16.31 397.94 19.60 C 398.51 19.88 399.66 20.43 400.23 20.71 C 397.69 21.04 395.12 21.10 392.57 20.90 C 393.23 20.58 394.54 19.95 395.19 19.64 C 395.22 16.35 395.22 13.06 395.18 9.77 C 393.14 9.80 391.44 10.73 390.01 12.12 C 390.27 11.13 390.78 9.14 391.04 8.14 Z" />
<path fill="#6b4825" d=" M 36.13 8.97 C 37.40 8.98 38.68 8.98 39.95 8.98 C 40.62 9.95 41.28 10.92 41.91 11.90 C 40.15 11.41 37.30 8.44 36.17 11.10 C 36.77 13.95 42.11 13.51 42.04 16.91 C 42.86 21.80 34.41 22.74 33.91 17.88 C 35.08 18.40 36.16 19.09 37.19 19.85 C 37.92 19.90 39.38 19.99 40.11 20.04 C 41.99 16.29 36.52 16.18 34.84 14.00 C 33.40 12.31 35.07 10.31 36.13 8.97 Z" />
<path fill="#6b4825" d=" M 118.42 8.93 C 119.94 8.97 121.46 9.00 122.98 9.01 C 124.04 11.79 125.23 14.51 126.65 17.13 C 127.72 14.42 128.74 11.69 129.83 8.99 C 131.24 8.99 132.65 8.99 134.06 8.98 C 130.72 11.45 132.97 16.03 132.53 19.50 C 133.06 19.88 134.11 20.63 134.63 21.00 C 132.31 21.02 129.98 20.99 127.66 20.84 C 128.25 20.56 129.43 19.98 130.02 19.69 C 130.00 17.10 129.90 14.51 129.70 11.93 C 128.18 15.05 127.37 18.49 125.57 21.47 C 124.26 18.51 123.14 15.45 121.33 12.74 C 121.29 14.94 121.29 17.15 121.28 19.36 C 121.82 19.78 122.91 20.62 123.45 21.04 C 121.59 20.99 119.74 20.90 117.89 20.79 C 121.31 19.80 120.03 15.73 120.35 13.05 C 120.68 11.31 119.71 9.96 118.42 8.93 Z" />
<path fill="#6b4825" d=" M 299.45 9.00 C 300.45 8.99 302.45 8.98 303.45 8.97 C 302.98 12.46 304.79 15.96 307.21 18.38 C 306.51 19.43 305.79 20.47 305.06 21.50 C 303.21 17.33 301.64 13.02 299.45 9.00 Z" />
<path fill="#6b4825" d=" M 304.07 8.96 C 308.02 9.06 311.99 9.14 315.95 9.00 C 314.49 11.44 314.20 14.90 312.24 16.80 C 311.94 14.27 313.56 12.04 314.24 9.69 C 311.39 9.14 310.70 12.29 309.33 14.03 C 310.10 15.45 310.90 16.86 311.75 18.23 C 311.59 19.38 311.32 20.49 310.94 21.58 C 309.49 20.26 308.82 18.32 307.33 17.06 C 307.48 14.01 305.87 11.28 304.07 8.96 Z" />
<path fill="#6b4825" d=" M 330.88 8.71 C 332.95 12.12 329.83 16.94 332.96 19.93 C 330.46 20.42 327.91 21.37 325.34 20.88 C 324.12 19.84 323.17 18.43 323.65 16.71 C 321.38 16.96 319.11 17.10 316.85 17.34 C 317.87 19.15 319.47 20.92 321.63 19.37 L 322.72 19.36 C 320.95 21.36 317.28 21.96 315.64 19.52 C 314.24 17.55 315.93 15.39 317.17 13.88 C 318.95 14.04 321.33 13.48 321.74 15.89 C 322.58 15.91 323.43 15.91 324.29 15.89 C 325.15 13.36 327.91 14.09 329.93 14.10 C 329.42 12.82 328.91 11.55 328.35 10.30 C 328.98 9.90 330.25 9.11 330.88 8.71 Z" />
<path fill="#6b4825" d=" M 403.05 10.36 C 404.04 9.83 405.03 9.30 406.03 8.77 C 405.99 10.82 405.92 12.87 405.87 14.92 C 407.40 14.38 409.14 13.40 410.73 14.37 C 411.93 16.43 410.93 19.22 412.81 21.03 C 411.26 21.02 409.73 21.02 408.20 21.04 C 409.61 19.26 409.30 16.98 409.28 14.87 C 408.26 15.36 407.25 15.84 406.23 16.30 C 406.14 17.97 406.27 19.63 407.21 21.08 C 405.81 21.05 404.42 21.04 403.03 21.03 C 404.75 17.89 404.90 13.45 403.05 10.36 Z" />
<path fill="#6b4825" d=" M 485.63 9.02 C 489.16 8.97 492.69 9.00 496.22 9.00 C 495.74 11.74 494.74 14.39 494.90 17.20 C 493.95 15.38 492.28 14.74 490.31 14.93 C 490.30 16.47 490.30 18.00 490.30 19.54 C 490.89 19.90 492.08 20.61 492.68 20.97 C 490.32 21.02 487.98 21.02 485.63 20.99 C 486.15 20.62 487.18 19.89 487.69 19.52 C 487.65 16.51 487.65 13.50 487.70 10.49 C 487.18 10.12 486.15 9.39 485.63 9.02 Z" />
<path fill="#6b4825" d=" M 504.17 9.15 C 505.79 8.64 506.36 9.20 505.85 10.83 C 504.22 11.33 503.66 10.77 504.17 9.15 Z" />
<path fill="#6b4825" d=" M 575.97 13.06 C 574.87 8.20 583.40 7.26 583.25 12.35 C 582.33 11.61 581.43 10.85 580.56 10.06 C 579.85 10.10 578.42 10.17 577.71 10.20 C 577.73 14.27 584.84 13.39 583.66 17.93 C 583.24 22.14 575.79 22.31 575.70 17.80 C 577.40 18.83 579.09 19.93 581.10 20.28 C 581.48 19.67 582.25 18.45 582.63 17.85 C 580.42 16.26 577.32 15.60 575.97 13.06 Z" />
<path fill="#fff2cc" d=" M 308.35 10.14 C 309.78 9.70 310.28 10.16 309.86 11.55 C 308.44 12.00 307.94 11.53 308.35 10.14 Z" />
<path fill="#fff2cc" d=" M 490.28 10.00 C 491.89 10.28 494.94 9.20 494.94 11.77 L 494.51 12.34 C 493.88 14.28 491.89 13.92 490.29 14.03 C 490.28 12.69 490.28 11.34 490.28 10.00 Z" />
<path fill="#6b4825" d=" M 593.44 14.31 C 594.26 13.43 595.16 12.65 596.08 11.87 C 596.16 12.38 596.31 13.40 596.39 13.91 L 598.41 14.20 C 597.84 14.50 596.71 15.09 596.14 15.38 C 595.89 17.64 595.86 20.02 598.32 21.00 C 597.42 21.02 595.63 21.06 594.73 21.08 C 594.28 18.82 593.82 16.57 593.44 14.31 Z" />
<path fill="#6b4825" d=" M 43.03 13.93 C 43.75 13.95 45.21 13.99 45.94 14.01 C 46.51 15.95 44.72 20.26 47.86 20.03 C 48.95 18.70 48.76 16.94 48.94 15.34 C 48.43 15.04 47.42 14.44 46.91 14.14 C 48.31 14.06 49.71 13.99 51.11 13.93 C 51.18 16.02 51.03 18.21 52.17 20.06 C 49.81 20.56 47.43 21.07 45.01 20.99 C 43.50 18.96 44.36 16.10 43.03 13.93 Z" />
<path fill="#6b4825" d=" M 52.87 14.92 C 55.35 14.45 57.86 14.10 60.37 13.82 C 60.93 16.05 60.63 18.57 61.94 20.55 L 62.20 20.99 C 60.78 21.01 59.36 21.03 57.94 21.06 C 59.28 19.35 59.29 17.19 58.93 15.15 C 55.16 14.19 55.42 18.93 56.81 21.05 C 55.47 21.03 54.12 21.03 52.78 21.03 C 54.42 19.24 54.00 16.85 52.87 14.92 Z" />
<path fill="#6b4825" d=" M 135.31 16.10 C 136.28 13.75 139.01 13.97 141.11 13.83 C 142.31 15.27 143.97 17.05 142.87 19.06 C 141.84 21.23 139.27 21.00 137.26 21.15 C 136.00 19.80 134.33 18.12 135.31 16.10 Z" />
<path fill="#6b4825" d=" M 144.13 15.15 C 144.99 14.78 145.86 14.41 146.72 14.03 C 147.09 14.39 147.82 15.11 148.19 15.46 L 147.97 13.80 C 149.33 14.11 151.06 13.72 152.08 14.91 C 152.33 16.50 152.35 18.12 152.42 19.73 C 152.83 20.00 153.66 20.56 154.08 20.83 C 152.40 20.93 150.72 21.02 149.04 21.11 C 150.76 19.33 150.30 16.88 150.10 14.65 C 149.01 15.13 147.92 15.62 146.84 16.12 C 147.14 17.78 147.47 19.43 147.95 21.05 C 146.64 21.04 145.33 21.04 144.03 21.04 C 145.47 19.27 145.42 16.98 144.13 15.15 Z" />
<path fill="#6b4825" d=" M 223.03 13.90 C 223.81 13.93 225.38 13.99 226.16 14.03 C 226.18 15.92 226.15 17.82 226.35 19.71 C 229.45 21.24 230.28 14.74 227.31 14.25 C 228.65 14.12 229.99 14.00 231.33 13.86 C 231.33 15.62 231.34 17.39 231.36 19.15 C 231.85 19.07 232.85 18.91 233.34 18.83 C 232.37 15.40 235.70 13.29 238.73 13.86 C 239.41 14.85 240.09 15.84 240.77 16.83 C 238.88 16.94 236.99 17.03 235.12 17.14 C 235.57 18.16 236.15 19.10 236.86 19.95 C 238.26 19.83 239.64 19.51 241.03 19.26 C 239.46 20.61 237.56 21.35 235.47 20.95 C 232.42 18.44 228.47 21.68 224.99 21.00 C 223.86 18.77 224.27 16.10 223.03 13.90 Z" />
<path fill="#6b4825" d=" M 413.03 13.93 C 413.76 13.95 415.23 13.99 415.96 14.02 C 416.23 16.35 414.99 19.70 418.10 20.51 C 418.58 18.39 419.88 15.28 417.09 14.18 C 418.43 14.09 419.76 14.00 421.12 13.91 C 421.16 16.00 421.05 18.18 422.16 20.05 C 419.79 20.57 417.39 21.14 414.95 20.98 C 413.59 18.88 414.30 16.11 413.03 13.93 Z" />
<path fill="#6b4825" d=" M 496.42 15.11 C 498.68 14.37 501.17 13.51 503.37 14.89 C 504.21 14.55 505.05 14.21 505.90 13.87 C 506.02 16.32 505.27 19.17 507.30 21.06 C 505.61 21.03 503.92 21.02 502.23 21.04 C 503.86 19.88 503.87 17.95 503.99 16.14 C 502.56 15.93 501.14 15.72 499.72 15.51 C 499.75 17.59 499.47 19.98 501.72 21.06 C 499.88 21.01 498.06 20.99 496.23 21.00 C 498.14 19.45 498.20 16.78 496.42 15.11 Z" />
<path fill="#6b4825" d=" M 584.62 17.35 C 585.25 14.24 588.38 13.63 591.07 14.01 C 591.21 15.86 591.33 17.70 591.44 19.55 C 591.86 19.92 592.71 20.66 593.13 21.02 C 592.24 20.94 590.47 20.76 589.58 20.68 C 588.11 20.87 586.62 21.10 585.16 20.79 C 584.47 18.59 586.43 17.83 588.23 17.71 C 587.98 18.28 587.50 19.41 587.25 19.98 C 589.26 20.92 590.82 18.06 588.23 17.71 C 588.75 17.60 590.36 13.60 588.02 15.27 C 586.88 15.97 585.85 16.84 584.62 17.35 Z" />
<path fill="#fff2cc" d=" M 137.97 15.01 C 141.94 13.43 141.85 21.67 137.91 19.99 C 137.30 18.40 136.96 16.51 137.97 15.01 Z" />
<path fill="#fff2cc" d=" M 236.19 15.09 C 239.30 13.64 236.29 18.34 236.19 15.09 Z" />
<path fill="#fff2cc" d=" M 318.17 15.10 C 321.22 13.56 318.39 18.36 318.17 15.10 Z" />
<path fill="#fff2cc" d=" M 325.78 16.97 C 325.85 15.10 327.77 15.15 329.08 14.70 C 329.29 16.46 329.75 18.34 328.90 20.02 C 327.07 20.53 325.36 18.81 325.78 16.97 Z" />
<path fill="#fff2cc" d=" M 588.23 17.71 C 590.82 18.06 589.26 20.92 587.25 19.98 C 587.50 19.41 587.98 18.28 588.23 17.71 Z" />
<path fill="#fad770" d=" M 1.07 29.10 C 50.71 29.34 100.35 29.12 149.99 29.20 C 310.62 29.15 471.25 29.27 631.88 29.14 C 631.90 29.58 631.93 30.46 631.95 30.90 C 624.63 31.61 617.29 31.07 609.95 31.29 C 591.30 30.94 572.65 31.43 554.01 31.36 C 532.34 31.21 510.64 31.14 488.96 31.27 C 481.00 31.93 473.03 30.77 465.06 31.25 C 404.69 31.22 344.32 31.29 283.96 31.23 C 273.97 31.43 263.96 30.71 253.98 31.41 C 249.66 31.67 245.36 30.97 241.05 31.09 C 225.34 31.68 209.62 30.77 193.91 31.42 C 184.61 31.04 175.30 31.40 166.00 31.07 C 148.31 31.57 130.62 31.00 112.93 31.10 C 101.28 31.60 89.63 31.29 77.98 31.08 C 52.32 31.51 26.64 31.46 0.99 31.10 C 1.01 30.60 1.05 29.60 1.07 29.10 Z" />
</svg>
